<svg width="45" height="45" viewBox="0 0 45 45" fill="none" xmlns="http://www.w3.org/2000/svg">
<g clip-path="url(#clip0_66_101)">
<path d="M26.306 32.528L24.3929 29.8922L21.3578 25.7106C20.1408 25.7106 18.9544 25.7106 18.1432 25.7106C17.8848 25.7106 17.6395 25.5956 17.473 25.3978C17.3066 25.2001 17.2357 24.9392 17.2794 24.6846L17.6671 22.4279L15.9699 21.6038L14.5937 28.7095C14.5374 29.0005 14.6139 29.3013 14.8025 29.53C14.991 29.7587 15.2719 29.8922 15.5683 29.8922C15.9532 29.8922 16.415 29.8922 16.932 29.8922V42.8555C16.932 44.0398 17.8921 45 19.0765 45C20.2609 45 21.2211 44.0399 21.2211 42.8555V29.8922C21.5293 29.8922 21.8387 29.8922 22.147 29.8922V42.8555C22.147 44.0398 23.1072 45 24.2915 45C25.4759 45 26.4361 44.0399 26.4361 42.8555V37.0382C25.6707 35.6353 25.6314 33.9532 26.306 32.528Z" fill="#323232"/>
<path d="M21.684 7.4075C23.7295 7.4075 25.3878 5.74928 25.3878 3.70375C25.3878 1.65823 23.7295 0 21.684 0C19.6385 0 17.9803 1.65823 17.9803 3.70375C17.9803 5.74928 19.6385 7.4075 21.684 7.4075Z" fill="#323232"/>
<path d="M24.2765 13.14C24.7853 17.2996 24.6135 16.1003 25.0361 18.5598L26.527 17.1068C26.2532 15.6935 26.3273 16.1489 26.2069 15.1636C26.5452 16.0039 26.9152 16.8905 27.2614 17.785L23.0442 21.8952C22.3374 22.5841 22.3229 23.7156 23.0116 24.4224C23.7004 25.1291 24.8319 25.1438 25.5388 24.4548L30.591 19.5306C31.0926 19.0417 31.2624 18.3048 31.0252 17.6457C30.2649 15.5331 29.4073 13.6656 28.912 12.2241C28.2447 10.2824 27.2137 9.11166 25.8397 8.72827C24.8967 11.3895 24.8146 11.6214 24.2765 13.14Z" fill="#323232"/>
<path d="M28.534 27.4684L27.7944 23.6504L26.6045 24.8101L28.534 27.4684Z" fill="#323232"/>
<path d="M33.7753 32.8269L33.7183 32.7485L33.7752 32.8269H33.7753Z" fill="#323232"/>
<path d="M31.9829 31.3823C31.2189 31.1075 30.3504 31.0997 29.5512 31.4079C29.5507 31.4081 29.5502 31.4082 29.5498 31.4084L25.4219 25.7212C24.7356 26.0258 23.9427 26.0439 23.2314 25.7516H23.2313L28.1005 32.4604C27.7001 32.9497 27.4214 33.5783 27.3429 34.2619C27.2203 35.3264 27.53 36.0773 28.1398 36.9175L33.7752 32.8272C33.3909 32.2969 32.9472 31.735 31.9829 31.3823Z" fill="#323232"/>
<path d="M36.4242 36.4767L34.5933 33.9541L28.9579 38.0444L28.9578 38.0443L30.7888 40.567C30.789 40.5672 30.7892 40.5674 30.7894 40.5677C31.3191 41.2944 33.394 40.1618 34.1409 39.6464C35.5099 38.6994 36.8987 37.1305 36.4242 36.4767Z" fill="#323232"/>
<path d="M21.2681 20.9144C21.6992 20.0266 21.329 18.9573 20.4412 18.5261C20.4412 18.5261 16.0601 16.3778 16.051 16.3732C18.0345 13.1287 17.7947 13.5333 18.0629 13.0421L18.9534 14.2689L19.0789 13.2428C18.3761 11.2595 18.293 11.0252 17.484 8.74211C16.7365 8.96772 16.207 9.41696 15.8005 9.925C15.4493 10.364 15.1924 10.8413 14.9474 11.2899L10.1008 4.61249C9.81754 4.22224 9.25718 4.11918 8.85111 4.41334C8.85082 4.41354 8.85052 4.41364 8.85032 4.41384C8.45022 4.70431 8.36119 5.26417 8.65166 5.66427L13.9559 12.9723C13.3716 13.9162 12.6561 15.0276 12.0565 15.9396C11.2632 17.146 11.6783 18.2444 12.6467 18.7146L18.8799 21.7415C19.7681 22.1726 20.8371 21.8018 21.2681 20.9144Z" fill="#323232"/>
<path d="M24.412 8.58813H18.907C19.2138 9.45369 20.115 11.9966 20.4582 12.9652C21.3935 12.9652 22.0242 12.9652 22.8609 12.9652C23.2054 11.9929 24.1125 9.4333 24.412 8.58813Z" fill="#323232"/>
</g>
<defs>
<clipPath id="clip0_66_101">
<rect width="45" height="45" fill="white"/>
</clipPath>
</defs>
</svg>
