<svg width="45" height="45" viewBox="0 0 45 45" fill="none" xmlns="http://www.w3.org/2000/svg">
<path d="M22.5 0C10.0583 0 0 10.0583 0 22.5C0 34.9417 10.0583 45 22.5 45C34.9417 45 45 34.9509 45 22.5C45 10.0491 34.9509 0 22.5 0ZM24.4141 41.1718V40.2147C24.4141 39.1656 23.5491 38.3006 22.5 38.3006C21.4509 38.3006 20.5859 39.1656 20.5859 40.2147V41.1718C11.7699 40.2699 4.73006 33.2301 3.83742 24.4233H4.69325C5.74233 24.4233 6.60736 23.5583 6.60736 22.5092C6.60736 21.4601 5.74233 20.5951 4.69325 20.5951H3.83742C4.73926 11.7791 11.7791 4.73926 20.5859 3.84663V4.69325C20.5859 5.74233 21.4509 6.60736 22.5 6.60736C23.5491 6.60736 24.4141 5.74233 24.4141 4.69325V3.83742C33.2301 4.73926 40.2699 11.7791 41.1626 20.5859H40.2147C39.1656 20.5859 38.3006 21.4509 38.3006 22.5C38.3006 23.5491 39.1656 24.4141 40.2147 24.4141H41.1718C40.2699 33.2301 33.2301 40.2699 24.4141 41.1718Z" fill="#323232"/>
<path d="M22.5 11.4939C21.4509 11.4939 20.5859 12.3589 20.5859 13.408V21.8283L11.8712 32.5583C11.1994 33.4233 11.3926 34.5645 12.1564 35.2362C13.2239 36.0184 14.3558 35.4295 14.7423 34.951L24.0368 23.6503C24.2301 23.3651 24.4233 22.9786 24.4233 22.5V13.408C24.4141 12.3497 23.5583 11.4939 22.5 11.4939Z" fill="#323232"/>
</svg>
