<svg width="30" height="30" viewBox="0 0 30 30" fill="none" xmlns="http://www.w3.org/2000/svg">
<path d="M15.0001 0C10.923 0 10.4148 0.0196875 8.8192 0.0871875C7.21701 0.165938 6.13326 0.414375 5.17701 0.785625C4.19076 1.17188 3.35076 1.68469 2.52108 2.51906C1.68576 3.34875 1.16826 4.18875 0.787639 5.175C0.416389 6.13125 0.167952 7.215 0.0892017 8.81719C0.0170142 10.4137 0.00201416 10.9209 0.00201416 14.9981C0.00201416 19.0753 0.0217017 19.5834 0.0892017 21.1791C0.167952 22.7766 0.416389 23.865 0.787639 24.8212C1.17389 25.8075 1.6867 26.6475 2.52108 27.4772C3.35076 28.3125 4.19076 28.83 5.17701 29.2106C6.13326 29.5772 7.2217 29.8303 8.8192 29.9091C10.4158 29.9812 10.923 29.9963 15.0001 29.9963C19.0773 29.9963 19.5855 29.9766 21.1811 29.9091C22.7786 29.8303 23.867 29.5763 24.8233 29.2106C25.8095 28.8244 26.6495 28.3116 27.4792 27.4772C28.3145 26.6475 28.832 25.8122 29.2126 24.8212C29.5792 23.865 29.8323 22.7766 29.9111 21.1791C29.9833 19.5825 29.9983 19.0753 29.9983 14.9981C29.9983 10.9209 29.9786 10.4128 29.9111 8.81719C29.8323 7.21969 29.5783 6.12563 29.2126 5.175C28.8264 4.18875 28.3136 3.34875 27.4792 2.51906C26.6495 1.68375 25.8142 1.16625 24.8233 0.785625C23.867 0.414375 22.7786 0.165938 21.1811 0.0871875C19.5845 0.015 19.0773 0 15.0001 0V0ZM15.0001 2.7C19.0042 2.7 19.4823 2.71969 21.0648 2.78719C22.5245 2.85563 23.3195 3.09938 23.8473 3.30563C24.5514 3.57844 25.0436 3.90094 25.5761 4.42781C26.0983 4.95 26.4208 5.44781 26.6936 6.15187C26.8998 6.67969 27.1436 7.47469 27.212 8.93437C27.2795 10.5169 27.2992 10.9959 27.2992 14.9991C27.2992 19.0022 27.2795 19.4813 27.2064 21.0638C27.1276 22.5234 26.8839 23.3184 26.6786 23.8463C26.3945 24.5503 26.0776 25.0425 25.5545 25.575C25.0267 26.0972 24.5242 26.4197 23.8258 26.6925C23.3045 26.8988 22.4983 27.1425 21.033 27.2109C19.442 27.2784 18.9733 27.2981 14.9589 27.2981C10.9445 27.2981 10.4767 27.2784 8.88389 27.2053C7.4242 27.1266 6.61889 26.8828 6.09108 26.6775C5.37858 26.3934 4.89014 26.0766 4.36701 25.5534C3.8392 25.0256 3.50358 24.5231 3.24483 23.8247C3.03483 23.3034 2.79483 22.4972 2.71701 21.0319C2.66358 19.4597 2.63826 18.9722 2.63826 14.9766C2.63826 10.9828 2.66358 10.4944 2.71701 8.9025C2.79483 7.43719 3.03483 6.63281 3.24483 6.10969C3.50358 5.39625 3.84014 4.90875 4.36701 4.38094C4.8892 3.85875 5.37858 3.52125 6.09108 3.25687C6.61889 3.05156 7.40451 2.80781 8.86983 2.73469C10.4608 2.6775 10.9295 2.65688 14.9383 2.65688L15.0001 2.7ZM15.0001 7.30031C10.743 7.30031 7.30045 10.7475 7.30045 15C7.30045 19.2572 10.7476 22.6997 15.0001 22.6997C19.2573 22.6997 22.6998 19.2525 22.6998 15C22.6998 10.7428 19.2526 7.30031 15.0001 7.30031V7.30031ZM15.0001 19.9997C12.2364 19.9997 10.0005 17.7637 10.0005 15C10.0005 12.2363 12.2364 10.0003 15.0001 10.0003C17.7639 10.0003 19.9998 12.2363 19.9998 15C19.9998 17.7637 17.7639 19.9997 15.0001 19.9997V19.9997ZM24.8101 6.99281C24.8101 7.98938 23.9992 8.79375 23.0073 8.79375C22.0108 8.79375 21.2064 7.98844 21.2064 6.99281C21.2064 6.00188 22.0164 5.19562 23.0073 5.19562C23.9983 5.19562 24.8101 6.00188 24.8101 6.99281V6.99281Z" fill="#323232"/>
</svg>
