<svg width="45" height="45" viewBox="0 0 45 45" fill="none" xmlns="http://www.w3.org/2000/svg">
<g clip-path="url(#clip0_20_19)">
<path d="M40.4075 0H4.59255C3.86279 0 3.27094 0.59168 3.27094 1.32161V43.6785C3.27094 44.4084 3.8627 45.0001 4.59255 45.0001H40.4075C41.1373 45.0001 41.7292 44.4084 41.7292 43.6785V1.32161C41.7291 0.59168 41.1373 0 40.4075 0ZM39.0859 42.3569H5.91407V16.3546H16.1395C12.691 18.4915 10.3888 22.3101 10.3888 26.6568C10.3888 33.3349 15.8218 38.768 22.5 38.768C27.1583 38.768 31.457 36.0463 33.4512 31.8343C34.2208 30.2094 34.6112 28.4675 34.6112 26.6568C34.6112 26.2039 34.5867 25.7553 34.5382 25.3118C34.3923 23.9813 34.0284 22.6965 33.4512 21.4778C33.451 21.4774 33.4507 21.477 33.4505 21.4766C32.4311 19.325 30.8094 17.5638 28.8465 16.3545H30.231C30.9607 16.3545 31.5526 15.7628 31.5526 15.0329C31.5526 14.303 30.9608 13.7113 30.231 13.7113H5.91407V2.64313H39.0858V42.3569H39.0859ZM25.2948 26.6568C25.2948 29.5008 27.2763 31.8892 29.9312 32.5187C28.1561 34.7569 25.4188 36.1247 22.5 36.1247C17.2793 36.1247 13.0319 31.8774 13.0319 26.6566C13.0319 21.4358 17.2793 17.1885 22.5 17.1885C25.4185 17.1885 28.1556 18.5558 29.9309 20.7934C27.2762 21.4234 25.2948 23.8123 25.2948 26.6568ZM31.3218 23.273C31.3288 23.273 31.3359 23.273 31.343 23.273C31.3683 23.3388 31.3937 23.4047 31.4175 23.471C31.4356 23.5215 31.4545 23.5716 31.4715 23.6224C31.5164 23.7545 31.5579 23.8877 31.5967 24.0216C31.6024 24.0416 31.6093 24.0612 31.615 24.0812C31.6585 24.2354 31.6974 24.3908 31.733 24.547C31.7433 24.5924 31.7518 24.6383 31.7614 24.6839C31.785 24.7957 31.8074 24.9078 31.827 25.0205C31.8367 25.0774 31.8455 25.1344 31.8543 25.1916C31.8704 25.2958 31.8848 25.4005 31.8975 25.5057C31.9046 25.5641 31.9114 25.6225 31.9174 25.681C31.9286 25.7917 31.9373 25.9028 31.9446 26.0142C31.9481 26.0656 31.9525 26.1168 31.9549 26.1682C31.9631 26.3304 31.9681 26.4932 31.9681 26.657C31.9681 26.8206 31.9631 26.9833 31.9549 27.1453C31.9523 27.1971 31.9479 27.2484 31.9445 27.3001C31.9371 27.411 31.9285 27.5215 31.9174 27.6315C31.9114 27.6908 31.9043 27.7499 31.8973 27.8091C31.8847 27.913 31.8705 28.0165 31.8546 28.1197C31.8456 28.1779 31.8367 28.236 31.8267 28.2939C31.8074 28.4049 31.7853 28.5153 31.7621 28.6254C31.7522 28.6726 31.7433 28.7201 31.7327 28.7671C31.6972 28.9227 31.6585 29.0773 31.6151 29.2308C31.6088 29.2532 31.6013 29.2752 31.5947 29.2975C31.5564 29.429 31.5156 29.5599 31.4716 29.6898C31.4543 29.741 31.4352 29.7917 31.4169 29.8427C31.3933 29.9087 31.3681 29.9741 31.3429 30.0395C31.3359 30.0395 31.3288 30.0395 31.3217 30.0395C29.4558 30.0395 27.9379 28.5222 27.9379 26.6571C27.938 24.791 29.4559 23.273 31.3218 23.273Z" fill="#323232"/>
<path d="M35.491 14.7754C35.4739 14.6908 35.4487 14.6075 35.4157 14.5269C35.3826 14.4476 35.3417 14.371 35.2941 14.2996C35.2467 14.227 35.1912 14.1595 35.1302 14.0987C35.0694 14.0379 35.002 13.9824 34.9293 13.9348C34.8579 13.8873 34.7813 13.8463 34.7007 13.8133C34.6214 13.7802 34.5383 13.7538 34.4537 13.7379C34.2832 13.7036 34.1074 13.7036 33.937 13.7379C33.8538 13.7538 33.7705 13.7802 33.6899 13.8133C33.6104 13.8463 33.534 13.8873 33.4626 13.9348C33.3897 13.9824 33.3224 14.0379 33.2616 14.0987C33.2008 14.1595 33.1453 14.227 33.0963 14.2996C33.0488 14.371 33.0078 14.4476 32.9748 14.5269C32.9417 14.6075 32.9166 14.6908 32.8995 14.7754C32.8823 14.8599 32.8745 14.9472 32.8745 15.0331C32.8745 15.119 32.8824 15.2062 32.8995 15.2908C32.9166 15.3753 32.9417 15.4587 32.9748 15.5379C33.0078 15.6185 33.0488 15.6952 33.0963 15.7665C33.1452 15.8392 33.2008 15.9066 33.2616 15.9675C33.3224 16.0283 33.3898 16.0837 33.4626 16.1314C33.534 16.1789 33.6105 16.2199 33.6899 16.2529C33.7705 16.286 33.8538 16.3124 33.937 16.3282C34.0228 16.3454 34.1102 16.3547 34.196 16.3547C34.2818 16.3547 34.3692 16.3455 34.4537 16.3282C34.5383 16.3124 34.6216 16.286 34.7007 16.2529C34.7813 16.2199 34.8579 16.1789 34.9293 16.1314C35.002 16.0838 35.0694 16.0283 35.1302 15.9675C35.1911 15.9066 35.2467 15.8392 35.2941 15.7665C35.3417 15.6952 35.3827 15.6185 35.4157 15.5379C35.4487 15.4587 35.4739 15.3753 35.491 15.2908C35.5082 15.2062 35.5175 15.119 35.5175 15.0331C35.5175 14.9472 35.5082 14.86 35.491 14.7754Z" fill="black"/>
<path d="M27.8561 4.52637H17.144C16.4143 4.52637 15.8224 5.11805 15.8224 5.84798V10.4956C15.8224 11.2254 16.4141 11.8172 17.144 11.8172H27.8561C28.5859 11.8172 29.1777 11.2256 29.1777 10.4956V5.84798C29.1777 5.11805 28.5859 4.52637 27.8561 4.52637ZM26.5345 9.17393H18.4656V7.1695H26.5345V9.17393Z" fill="black"/>
<path d="M11.8282 6.8501H10.0441C9.3143 6.8501 8.72244 7.44178 8.72244 8.17171C8.72244 8.90164 9.31421 9.49332 10.0441 9.49332H11.8282C12.558 9.49332 13.1498 8.90164 13.1498 8.17171C13.1498 7.44178 12.558 6.8501 11.8282 6.8501Z" fill="black"/>
<path d="M34.9559 6.8501H33.1718C32.442 6.8501 31.8501 7.44178 31.8501 8.17171C31.8501 8.90164 32.4419 9.49332 33.1718 9.49332H34.9559C35.6857 9.49332 36.2775 8.90164 36.2775 8.17171C36.2775 7.44178 35.6857 6.8501 34.9559 6.8501Z" fill="black"/>
</g>
<defs>
<clipPath id="clip0_20_19">
<rect width="45" height="45" fill="white"/>
</clipPath>
</defs>
</svg>
