<svg width="30" height="30" viewBox="0 0 30 30" fill="none" xmlns="http://www.w3.org/2000/svg">
<path d="M18.1312 21.8C19.725 21.4375 21.2475 20.8075 22.6312 19.9375C23.6737 19.24 23.9537 17.83 23.2562 16.7875C22.5862 15.785 21.2512 15.4825 20.2125 16.0962C17.025 18.09 12.975 18.09 9.7875 16.0962C8.72875 15.4287 7.33125 15.7463 6.6625 16.8025C6.6625 16.805 6.6625 16.8075 6.66 16.8087C5.9925 17.8675 6.31 19.2662 7.36875 19.9337L7.37125 19.9363C8.7525 20.805 10.2737 21.4363 11.8662 21.7963L7.535 26.1275C6.65125 26.9963 6.635 28.415 7.5 29.2987L7.5375 29.3362C7.9675 29.7787 8.55 29.9988 9.13 29.9988C9.71125 29.9988 10.2925 29.7787 10.7237 29.3362L15 25.0813L19.255 29.3388C20.155 30.2075 21.5925 30.1838 22.4625 29.2825C23.31 28.4038 23.31 27.01 22.4625 26.1325L18.1312 21.8V21.8ZM15 15.485C19.275 15.48 22.7375 12.0175 22.7437 7.74375C22.7437 3.475 19.2687 0 15 0C10.7312 0 7.25625 3.475 7.25625 7.74625C7.2625 12.0213 10.7262 15.4837 15 15.4862V15.485ZM15 4.53875C16.77 4.54125 18.2037 5.97625 18.205 7.745C18.205 9.515 16.77 10.9487 15 10.9512C13.2312 10.9487 11.7975 9.51625 11.7937 7.74625C11.7962 5.975 13.2312 4.54125 15 4.5375V4.53875Z" fill="#323232"/>
</svg>
